<svg width="665" height="674" viewBox="0 0 665 674" fill="none" xmlns="http://www.w3.org/2000/svg">
<g style="mix-blend-mode:multiply">
<mask id="mask0_47_2212" style="mask-type:luminance" maskUnits="userSpaceOnUse" x="0" y="89" width="337" height="586">
<path d="M336.504 89.5667H0V674H336.504V89.5667Z" fill="white"/>
</mask>
<g mask="url(#mask0_47_2212)">
<path d="M316.547 671.945C317.129 671.945 317.41 106.005 316.547 106.005C152.448 106.005 19.4174 232.701 19.4174 388.985C19.4174 545.27 152.448 671.945 316.525 671.945" fill="#E99B8C"/>
</g>
</g>
<g style="mix-blend-mode:multiply">
<mask id="mask1_47_2212" style="mask-type:luminance" maskUnits="userSpaceOnUse" x="336" y="0" width="329" height="296">
<path d="M664.011 0H336.612V295.124H664.011V0Z" fill="white"/>
</mask>
<g mask="url(#mask1_47_2212)">
<path d="M356.029 293.069C356.029 286.124 356.568 16.438 356.568 16.438C495.403 16.438 611.972 107.114 644.593 229.66C645.37 232.577 356.029 293.11 356.029 293.049" fill="#9CCA94"/>
</g>
</g>
<path d="M317.086 564.687C418.963 564.687 501.573 486.031 501.573 388.985C501.573 291.939 418.985 213.283 317.086 213.283C215.188 213.283 132.599 291.939 132.599 388.985C132.599 486.031 215.188 564.687 317.086 564.687Z" fill="#FADE9B"/>
</svg>
